<?xml version="1.0" encoding="utf-8"?>
<!-- Generator: Adobe Illustrator 17.0.0, SVG Export Plug-In . SVG Version: 6.00 Build 0)  -->
<!DOCTYPE svg PUBLIC "-//W3C//DTD SVG 1.1//EN" "http://www.w3.org/Graphics/SVG/1.1/DTD/svg11.dtd">
<svg version="1.1" id="Layer_1" xmlns="http://www.w3.org/2000/svg" xmlns:xlink="http://www.w3.org/1999/xlink" x="0px" y="0px"
	 width="128px" height="128px" viewBox="0 0 128 128" enable-background="new 0 0 128 128" xml:space="preserve">
<g>
	<g>
		<path fill="#FFFFFF" d="M47.615,95.999c-6.612,0-13.223,0-19.835,0c-1.071,0-2.14,0-3.211,0c-0.931,0,1.02,0.317-0.462-0.1
			c-2.769-0.78-5.345-2.055-7.783-3.591c-9.195-5.793-11.874-17.742-6.207-27.135c2.958-4.903,8.744-8.588,14.159-10.031
			c1.359-0.362,2.026-1.56,2.157-2.893c0.291-2.935,2.224-7.709,4.989-10.4c5.019-4.888,11.208-3.131,16.547-0.009
			c1.328,0.776,3.289,0.39,4.021-1.076c5.867-11.763,17.426-22.032,30.997-16.658c11.765,4.657,18.635,14.973,19.236,27.893
			c0.068,1.455,0.874,2.377,2.157,2.893c11.663,4.686,19.137,14.663,15.225,27.517c-0.124,0.408-0.267,0.81-0.419,1.208
			c0.152-0.399,0.161-0.869-0.11,0.322c-0.244,1.074-0.736,2.028-1.273,2.978C114.127,93.404,106.2,95.495,99.405,96
			c-3.756,0.279-3.783,6.281,0,6c8.447-0.627,17.205-3.182,22.426-10.48c1.192-1.666,2.125-3.472,2.759-5.435
			c0.52-1.607-0.609,1.26,0.187-0.687c0.187-0.456,0.343-0.924,0.494-1.394c1.678-5.227,1.743-11.021,0.261-16.291
			c-2.671-9.502-11.056-15.177-19.591-18.606c0.719,0.964,1.438,1.929,2.157,2.893c-0.742-15.962-9.28-27.814-23.551-33.68
			c-15.897-6.534-30.747,5.61-37.634,19.416c1.34-0.359,2.68-0.718,4.021-1.076c-7.609-4.449-13.507-5.045-21.185-0.921
			c-5.639,3.029-8.582,10.348-9.193,16.511c0.719-0.964,1.438-1.929,2.157-2.893C3.69,54.424-6.427,78.33,8.554,93.663
			c10.797,11.05,25.182,8.336,39.06,8.336C51.404,101.999,51.404,95.999,47.615,95.999L47.615,95.999z"/>
	</g>
</g>
<g>
	<path fill="none" stroke="#FFFFFF" stroke-width="4" stroke-miterlimit="10" d="M91.08,109.499c0,1.1-0.882,2-1.959,2H58.756
		c-1.077,0-1.959-0.9-1.959-2v-64.75c0-1.1,0.882-2,1.959-2h30.364c1.077,0,1.959,0.9,1.959,2V109.499z"/>
</g>
<line fill="none" stroke="#FFFFFF" stroke-width="4" stroke-miterlimit="10" x1="63.409" y1="68.749" x2="84.346" y2="68.749"/>
<line fill="none" stroke="#FFFFFF" stroke-width="4" stroke-miterlimit="10" x1="63.409" y1="78.999" x2="84.346" y2="78.999"/>
<line fill="none" stroke="#FFFFFF" stroke-width="4" stroke-miterlimit="10" x1="63.409" y1="88.749" x2="84.346" y2="88.749"/>
<line fill="none" stroke="#FFFFFF" stroke-width="4" stroke-miterlimit="10" x1="63.471" y1="99.249" x2="84.407" y2="99.249"/>
<line fill="none" stroke="#FFFFFF" stroke-width="4" stroke-miterlimit="10" x1="76.877" y1="50.624" x2="84.958" y2="50.624"/>
</svg>
