<?xml version="1.0" encoding="utf-8"?>
<!-- Generator: Adobe Illustrator 17.0.0, SVG Export Plug-In . SVG Version: 6.00 Build 0)  -->
<!DOCTYPE svg PUBLIC "-//W3C//DTD SVG 1.1//EN" "http://www.w3.org/Graphics/SVG/1.1/DTD/svg11.dtd">
<svg version="1.1" id="Layer_2" xmlns="http://www.w3.org/2000/svg" xmlns:xlink="http://www.w3.org/1999/xlink" x="0px" y="0px"
	 width="128px" height="128px" viewBox="0 0 128 128" enable-background="new 0 0 128 128" xml:space="preserve">
<g>
	<path fill="#FFFFFF" d="M64.417,34c-17.374,0-31.458,14.084-31.458,31.458c0,11.322,5.984,21.243,14.959,26.784l7.25-18.409
		c0,0-15.083-14.417,4.292-26.625l-3.875,10.458l7.75,10.125l13.25-2.042l4.125-10.417c0,0,7.208,20-15.042,22.75
		c-2.741,7.461-6.523,16.725-7.156,18.272c1.914,0.364,3.887,0.562,5.906,0.562c17.374,0,31.458-14.084,31.458-31.458
		S81.791,34,64.417,34z"/>
</g>
<circle fill="none" stroke="#FFFFFF" stroke-width="7" stroke-miterlimit="10" cx="64.156" cy="65.438" r="48.844"/>
<polygon fill="#FFFFFF" points="100.375,56.688 127.625,60.063 111.749,76.466 "/>
<polygon fill="#FFFFFF" points="27.167,76.875 0.25,73.708 15.968,57.418 "/>
</svg>
